<?xml version="1.0" encoding="UTF-8"?>
<svg id="Layer_1" data-name="Layer 1" xmlns="http://www.w3.org/2000/svg" viewBox="0 0 322.87 47.42">
  <defs>
    <style>
      .cls-1 {
        fill: #0083db;
      }

      .cls-2 {
        fill: #011b2d;
      }
    </style>
  </defs>
  <g>
    <path class="cls-2" d="M69.79,9h18.95v5.46h-12.73v6.39h11.55v5.46h-11.55v6.64h12.94v5.46h-19.16V9Z"/>
    <path class="cls-2" d="M106.3,22.95h12.02v13.19c-.64.5-1.35.93-2.12,1.28s-1.58.64-2.44.88-1.73.41-2.63.53c-.9.11-1.78.17-2.65.17-2.02,0-3.9-.29-5.65-.88-1.75-.59-3.28-1.51-4.58-2.75-1.3-1.25-2.32-2.84-3.07-4.77-.74-1.93-1.11-4.23-1.11-6.89s.45-5.13,1.34-7.08c.9-1.95,2.07-3.53,3.51-4.75,1.44-1.22,3.05-2.1,4.83-2.65,1.78-.55,3.55-.82,5.31-.82s3.42.13,4.81.4c1.39.27,2.47.53,3.26.78l-1.3,5.17c-.76-.25-1.61-.46-2.56-.63-.95-.17-2.14-.25-3.57-.25-1.32,0-2.52.18-3.61.53-1.09.35-2.04.92-2.86,1.7-.81.79-1.44,1.81-1.89,3.07s-.67,2.79-.67,4.58.22,3.22.67,4.45c.45,1.23,1.06,2.25,1.83,3.05s1.66,1.38,2.67,1.74c1.01.36,2.07.55,3.19.55.76,0,1.52-.08,2.29-.25s1.42-.43,1.95-.8v-5.08l-6.97-.67v-3.78Z"/>
    <path class="cls-2" d="M149.24,23.67l.67-6.09h-.25l-2.02,4.62-6.81,10.97h-1.93l-7.23-11.01-1.97-4.54h-.25l.88,6.01v14.79h-5.88V9h5.63l8.49,13.57,1.6,3.23h.21l1.39-3.32,8.11-13.49h5.59v29.41h-6.22v-14.75Z"/>
    <path class="cls-2" d="M185.6,25.26h-14.92v13.15h-4.2V9h4.2v12.56h14.92v-12.56h4.2v29.41h-4.2v-13.15Z"/>
    <path class="cls-2" d="M193.29,23.71c0-2.41.3-4.56.9-6.45.6-1.89,1.47-3.49,2.6-4.79,1.13-1.3,2.52-2.3,4.16-2.98,1.64-.69,3.49-1.03,5.57-1.03,2.21,0,4.15.37,5.82,1.11,1.67.74,3.05,1.78,4.16,3.11s1.93,2.93,2.48,4.81c.55,1.88.82,3.95.82,6.22,0,2.41-.3,4.56-.9,6.45-.6,1.89-1.48,3.49-2.63,4.79-1.15,1.3-2.54,2.3-4.18,2.98-1.64.69-3.49,1.03-5.57,1.03-2.24,0-4.19-.37-5.84-1.11s-3.02-1.78-4.12-3.11c-1.09-1.33-1.91-2.93-2.46-4.81-.55-1.88-.82-3.95-.82-6.22ZM197.74,23.71c0,1.59.17,3.07.52,4.46s.88,2.61,1.6,3.67c.71,1.06,1.62,1.89,2.73,2.5,1.11.61,2.42.92,3.93.92,2.72,0,4.87-.93,6.45-2.8,1.58-1.86,2.37-4.78,2.37-8.76,0-1.56-.18-3.03-.53-4.42-.35-1.39-.88-2.61-1.6-3.67-.71-1.06-1.63-1.9-2.73-2.52-1.11-.63-2.43-.94-3.97-.94-2.69,0-4.83.95-6.41,2.84-1.58,1.89-2.37,4.8-2.37,8.72Z"/>
    <path class="cls-2" d="M224.13,9.3c.59-.11,1.24-.21,1.95-.29.71-.08,1.44-.15,2.16-.21.73-.06,1.46-.1,2.18-.13.73-.03,1.41-.04,2.06-.04,1.4,0,2.75.14,4.05.42s2.45.74,3.45,1.39c.99.64,1.79,1.49,2.39,2.52.6,1.04.9,2.31.9,3.83,0,1.18-.18,2.24-.55,3.2-.36.95-.87,1.8-1.51,2.52-.64.73-1.41,1.34-2.29,1.83-.88.49-1.84.86-2.88,1.11l2.18,1.47,7.9,11.5h-4.83l-8.74-12.4-4.24-.59v12.98h-4.2V9.3ZM232.62,12.32h-1.2c-.41,0-.81.01-1.2.04-.39.03-.76.06-1.09.08-.34.03-.6.07-.8.13v10.17h3.45c1.01,0,1.94-.1,2.79-.32.85-.21,1.6-.53,2.23-.97.63-.43,1.13-1,1.49-1.7s.55-1.56.55-2.56c0-1.51-.53-2.7-1.6-3.57-1.07-.87-2.61-1.3-4.62-1.3Z"/>
    <path class="cls-2" d="M249.72,9h17.77v3.7h-13.57v8.86h12.4v3.7h-12.4v9.45h13.78v3.7h-17.98V9Z"/>
    <path class="cls-2" d="M294.08,37.15c-.93.67-2.1,1.14-3.53,1.41s-2.94.4-4.54.4c-1.88,0-3.66-.3-5.36-.9-1.7-.6-3.19-1.53-4.48-2.77s-2.31-2.83-3.07-4.75-1.13-4.2-1.13-6.83.42-5.08,1.26-7.02c.84-1.93,1.93-3.51,3.28-4.73,1.34-1.22,2.86-2.11,4.54-2.67,1.68-.56,3.35-.84,5-.84,1.85,0,3.36.1,4.54.29,1.18.2,2.17.45,2.98.76l-.92,3.61c-1.37-.64-3.46-.97-6.26-.97-1.26,0-2.49.2-3.68.61-1.19.41-2.26,1.06-3.19,1.98-.94.91-1.69,2.1-2.25,3.57-.56,1.47-.84,3.27-.84,5.4,0,1.91.27,3.58.8,5.02.53,1.44,1.27,2.65,2.21,3.61.94.97,2.04,1.7,3.32,2.19,1.27.49,2.67.74,4.18.74,1.37,0,2.56-.13,3.57-.38,1.01-.25,1.86-.57,2.56-.97l1.01,3.23Z"/>
    <path class="cls-2" d="M315.25,30.64h-11.53l-3.08,7.77h-4.2l12.1-29.83h2.18l12.14,29.83h-4.45l-3.16-7.77ZM304.97,27.2h9.07l-3.37-8.36-1.12-4.5h-.08l-1.12,4.58-3.37,8.28Z"/>
  </g>
  <path class="cls-1" d="M30.55,0H0v47.42h57.11V0h-26.55ZM47.08,38.61H10.03v-10.7h37.05v10.7ZM47.08,19.1H10.03v-10.3h37.05v10.3Z"/>
</svg>